# xmcd
#
# Track frame offsets:
# 183
# 13683
# 23883
# 33108
# 46533
# 47508
# 48783
# 49608
# 50808
# 60708
# 73683
# 88158
# 94083
# 108183
# 122133
# 136383
# 152808
# 167208
# 181458
# 196158
# 208458
# 223383
# 237483
# 248433
# 262308
# 276783
# 290133
# 304008
# 318483
#
# Disc length: 4454 seconds
#
#
# Revision: 1
# Processed by: cddbd v1.5.2PL0 Copyright (c) Steve Scherf et al.
# Submitted via: FreeRIP 2.942 
#
DISCID=b211641d
DTITLE=SAS053 -  Authentic  Indonesia - Bali - Java and Korea
DYEAR=1995
DGENRE=Contentum
TTITLE0=Indonesia - Bali - Java - Barong dance
TTITLE1=Indonesia - Bali - Java - Desa life
TTITLE2=Indonesia - Bali - Java - Sita bride
TTITLE3=Indonesia - Bali - Java - Legong dance
TTITLE4=Indonesia - Bali - Java - Nusa dua rocks 1
TTITLE5=Indonesia - Bali - Java - Nusa dua rocks 2
TTITLE6=Indonesia - Bali - Java - Nusa dua rocks 3
TTITLE7=Indonesia - Bali - Java - Nusa dua rocks 4
TTITLE8=Indonesia - Bali - Java - Bagus song
TTITLE9=Indonesia - Bali - Java - Cremation ceremony
TTITLE10=Indonesia - Bali - Java - Temple of Besakih
TTITLE11=Indonesia - Bali - Java - Kecak trance
TTITLE12=Indonesia - Bali - Java - Astuti beauty
TTITLE13=Indonesia - Bali - Java - New Bali wave
TTITLE14=Indonesia - Bali - Java - Agung choir
TTITLE15=Korea - Four seasons
TTITLE16=Korea - Wind of spring
TTITLE17=Korea - Namsa dang
TTITLE18=Korea - Recollection
TTITLE19=Korea - Womans poem
TTITLE20=Korea - The old emotion
TTITLE21=Korea - Samul nori
TTITLE22=Korea - Tiger dance
TTITLE23=Korea - Yum bull
TTITLE24=Korea - Sa gun ja
TTITLE25=Korea - Moon light
TTITLE26=Korea - San Suohwa
TTITLE27=Korea - Elegy
TTITLE28=Korea - Pa Bal ma
EXTD=YEAR: 1995
EXTT0=
EXTT1=
EXTT2=
EXTT3=
EXTT4=
EXTT5=
EXTT6=
EXTT7=
EXTT8=
EXTT9=
EXTT10=
EXTT11=
EXTT12=
EXTT13=
EXTT14=
EXTT15=
EXTT16=
EXTT17=
EXTT18=
EXTT19=
EXTT20=
EXTT21=
EXTT22=
EXTT23=
EXTT24=
EXTT25=
EXTT26=
EXTT27=
EXTT28=
PLAYORDER=
